<svg width="61" height="61" xmlns="http://www.w3.org/2000/svg" xmlns:xlink="http://www.w3.org/1999/xlink"><defs><path d="M0 16.207C0 7.256 7.252 0 16.207 0h28.586C53.744 0 61 7.252 61 16.207v28.586C61 53.744 53.748 61 44.793 61H16.207C7.256 61 0 53.748 0 44.793V16.207z" id="a"/><mask id="b" maskContentUnits="userSpaceOnUse" maskUnits="objectBoundingBox" x="0" y="0" width="61" height="61" fill="#fff"><use xlink:href="#a"/></mask></defs><g fill="none" fill-rule="evenodd"><use stroke="#969CA3" mask="url(#b)" fill="#FFF" stroke-dasharray="2.43" xlink:href="#a"/><path d="M43.062 28.25H30.875V16.938c0-.52-.391-.938-.875-.938s-.875.418-.875.938V28.25H16.938c-.52 0-.938.391-.938.875s.418.875.938.875h12.187v13.062c0 .52.391.938.875.938s.875-.418.875-.938V30h12.187c.52 0 .938-.391.938-.875s-.418-.875-.938-.875z" fill="#E6E6E6"/></g></svg>