<svg width="46" height="42" xmlns="http://www.w3.org/2000/svg"><g fill="none"><path d="M41.53 41.544H4.283a3.556 3.556 0 01-3.541-3.54V17.263a3.556 3.556 0 013.541-3.542h37.245a3.556 3.556 0 013.541 3.541v20.71a3.563 3.563 0 01-3.54 3.572z" fill="#E6E6E6"/><path d="M45.07 16.314a4.46 4.46 0 00-1.865-3.7L25.12.853a2.97 2.97 0 00-.569-.38l-.031-.03a3.487 3.487 0 00-1.613-.411 3.589 3.589 0 00-1.613.411l-.031.031c-.218.097-.42.225-.6.38L3.083 12.331a3.905 3.905 0 00-.853.537h-.032a4.6 4.6 0 000 6.829h.032a3 3 0 00.854.538L20.947 31.93a3.48 3.48 0 001.928.6 3.55 3.55 0 002.466-1.011l17.295-11.254c.308-.152.594-.344.853-.569h.032a4.26 4.26 0 001.55-3.383z" fill="#EFEFEF"/><path d="M37.19 28.558l-3.32-3.319a.8.8 0 00-.566-.233h-.543a6.923 6.923 0 10-1.2 1.2v.543a.8.8 0 00.233.566l3.32 3.319a.796.796 0 001.128 0l.943-.942a.803.803 0 00.005-1.134zm-9.89-3.552a4.262 4.262 0 110-8.524 4.262 4.262 0 010 8.524z" fill="#818181"/></g></svg>