<svg width="96" height="96" xmlns="http://www.w3.org/2000/svg" xmlns:xlink="http://www.w3.org/1999/xlink"><defs><linearGradient x1="61.307%" y1="0%" x2="24.377%" y2="100%" id="c"><stop stop-color="#E3FAFF" offset="0%"/><stop stop-color="#68A09D" offset="100%"/></linearGradient><linearGradient x1="61.084%" y1="0%" x2="24.883%" y2="100%" id="d"><stop stop-color="#E3FAFF" offset="0%"/><stop stop-color="#68A09D" offset="100%"/></linearGradient><linearGradient x1="50%" y1="124.119%" x2="50%" y2="-53.716%" id="e"><stop stop-color="#E3FAFF" offset="0%"/><stop stop-color="#68A09D" offset="100%"/></linearGradient><path id="a" d="M0 0h96v96H0z"/></defs><g fill="none" fill-rule="evenodd"><rect fill="#FFF" width="96" height="96" rx="16"/><mask id="b" fill="#fff"><use xlink:href="#a"/></mask><g mask="url(#b)" fill-rule="nonzero"><g transform="translate(23.467 21.333)"><path d="M20.75 25.618l4.552-5.427c3.338-3.978-1.555-9.535-5.91-6.715L8.816 20.318C.134 25.938-2.612 37.832 3.691 46.035a17.402 17.402 0 0013.433 6.843 17.4 17.4 0 0013.733-6.219l4.473-5.334c4.063-4.842-1.893-11.6-7.195-8.17l-.474.305c-5.092 3.298-10.811-3.192-6.911-7.842z" fill="url(#c)" opacity=".802"/><path d="M28.622 25.618l-4.552-5.427c-3.339-3.978 1.555-9.535 5.91-6.715l10.494 6.792c8.728 5.644 11.528 17.63 5.15 25.844a17.404 17.404 0 01-13.422 6.767 17.402 17.402 0 01-13.685-6.22l-4.114-4.9c-4.122-4.918 1.925-11.778 7.31-8.297 5.09 3.296 10.809-3.194 6.91-7.844z" fill="url(#d)" opacity=".802"/><ellipse fill="url(#e)" cx="24.598" cy="5.083" rx="4.842" ry="4.849"/></g></g></g></svg>