<svg width="92" height="56" xmlns="http://www.w3.org/2000/svg"><g transform="translate(0 -4)" fill="none" fill-rule="evenodd"><path d="M35.697 35.537l19.533-9.325a2 2 0 012.85 1.583l3.337 29.969a2 2 0 01-3.328 1.706L35.22 38.826a2 2 0 01.478-3.29z" fill="#4E6C6A"/><path fill="#F6F6F6" d="M58.63 32.802L39 42.608 43.708 47l15.63-7.896zM60.37 45L48 50.864 53.048 55 61 50.864z"/><path fill="#4E6C6A" d="M29.317 26.062l-1.204 3.095-1.724-2.838-3.315-.19 2.167-2.516-.844-3.21 3.062 1.282 2.793-1.795-.274 3.309 2.57 2.101zm23.257-11.657l-2.201.746.746-2.201-1.39-1.863 2.324.03 1.342-1.898.69 2.22 2.22.69-1.898 1.342.03 2.324zm-12.99-3.584l-1.631 2.019-.617-2.289-2.432-.647 2.214-1.458.128-2.418 1.985 1.388 2.512-.848-.988 2.316 1.424 1.894z"/><path d="M53.916 23.367c-.56-.453 5.272-8.542 7.214-6.969 1.943 1.573-6.654 7.423-7.214 6.97zM27.932 13.286c-.36.624-7.895-1.12-6.645-3.284 1.25-2.166 7.005 2.66 6.645 3.284zm4.74 21.188c-.075.717-7.667 2.189-7.406-.297.261-2.487 7.481-.42 7.406.297zM46.253 19.05L44.44 29.458l3.943-9.255a1.462 1.462 0 00-.681-1.876 1.007 1.007 0 00-1.45.725zM33.72 17.236l7.74 7.187-5.614-8.348a1.462 1.462 0 00-1.944-.45 1.007 1.007 0 00-.182 1.61zM3.6 41.4a.8.8 0 01.8.8v2h2a.8.8 0 110 1.6h-2v2a.8.8 0 11-1.6 0v-2h-2a.8.8 0 110-1.6h2v-2a.8.8 0 01.8-.8zM77.6 4.4a.8.8 0 01.8.8v2h2a.8.8 0 110 1.6h-2v2a.8.8 0 11-1.6 0v-2h-2a.8.8 0 110-1.6h2v-2a.8.8 0 01.8-.8zM80.5 14c.307 0 .556.249.556.556l-.001 1.388h1.39a.556.556 0 110 1.112l-1.39-.001v1.39a.556.556 0 11-1.11 0l-.001-1.39h-1.388a.556.556 0 010-1.11l1.388-.001v-1.388c0-.307.25-.556.556-.556z" fill="#779795"/><circle stroke="#779795" cx="6" cy="27" r="2"/><circle stroke="#779795" cx="89" cy="39" r="2"/></g></svg>