<svg width="37" height="29" xmlns="http://www.w3.org/2000/svg" xmlns:xlink="http://www.w3.org/1999/xlink"><defs><path id="a" d="M0 0h28.218v36.258H0z"/></defs><g transform="rotate(90 18.5 18.5)" fill="none" fill-rule="evenodd" opacity=".799"><mask id="b" fill="#fff"><use xlink:href="#a"/></mask><path d="M14.14 11.149c0-2.544-.001-5.088.001-7.633 0-.734-.13-1.463-1.017-1.482-.964-.02-1.07.72-1.067 1.51.014 4.695-.01 9.39.018 14.083.008 1.356-.3 2.51-1.601 3.137-1.337.645-2.458.188-3.537-.724a14 14 0 00-2.647-1.767c-.712-.364-1.476-.214-1.976.547-.51.776-.362 1.484.203 2.163 2.957 3.55 5.845 7.162 8.905 10.62.883.998 2.162 1.834 3.424 2.272 4.75 1.649 10.405-1.784 11.108-6.926.437-3.205.23-6.502.22-9.758-.001-.09-.04-.18-.104-.269-.395-.555-1.228-.555-1.666-.034-.094.11-.171.228-.22.356-.18.469-.06 1.06-.044 1.597.022.697-.19 1.267-.966 1.267-.75 0-1.023-.546-1.022-1.245 0-1.111-.017-2.222.005-3.333.013-.714-.106-1.352-.96-1.387-.923-.037-1.089.64-1.093 1.387-.008 1.218.049 2.442-.057 3.651-.029.335-.105.865-.815.877-.607.01-.843-.185-1.01-.596-.109-.265-.098-.767-.098-1.053-.004-1.649-.013-3.297.002-4.946.006-.725-.181-1.363-1-1.37-.809-.007-1.033.606-1.027 1.345.015 1.791 0 3.583.006 5.375.002.686-.205 1.271-.967 1.295-.854.026-1.008-.597-1.003-1.326.016-2.544.006-5.089.005-7.633m1.963-.97c1.915-.348 3.21.363 3.967 2.062 1.827-.355 3.219.151 3.984 1.971.637 0 1.292-.103 1.9.022 1.16.24 2.194 1.332 2.194 2.496.001 3.539.27 7.136-.255 10.606-1.175 7.77-10.639 11.56-16.697 6.867a9.976 9.976 0 01-1.533-1.501C6.76 29.23 3.88 25.74.994 22.255c-.792-.957-1.208-2.024-.883-3.28.69-2.659 3.343-3.664 5.897-2.172.826.482 1.509 1.205 2.303 1.75.348.239.966.544 1.186.4.325-.215.562-.8.565-1.23.039-4.907.015-9.814.034-14.72.006-1.518.99-2.646 2.467-2.949 1.29-.265 2.744.464 3.24 1.732.214.55.279 1.184.288 1.781.032 2.179.012 4.358.012 6.611" fill="#FFF" mask="url(#b)"/></g></svg>