<svg width="26" height="26" xmlns="http://www.w3.org/2000/svg" xmlns:xlink="http://www.w3.org/1999/xlink"><defs><path id="a" d="M0 0h25.705v26H0z"/></defs><g fill="none" fill-rule="evenodd"><path d="M0 0h25.705v26H0z"/><mask id="b" fill="#fff"><use xlink:href="#a"/></mask><g mask="url(#b)" fill="#4E6C6A" fill-rule="nonzero"><path d="M19.975 25.926c-.37.058-.75.04-1.114-.057l-1.005-.196c-.211-.042.359-.97.437-1.11.304-.557.616-1.109.928-1.66.48-.842.964-1.682 1.455-2.519a22.764 22.764 0 002.193-4.914c.416-1.401.587-2.559.743-2.865a20.16 20.16 0 00.76-1.978 9.142 9.142 0 00-1.167-4.048 8.742 8.742 0 00-4.387-4.004 7.267 7.267 0 00-3.474-.216c-.1-.319-.595-.557-1.3-.686a5.355 5.355 0 00-2.2-.05c-.872.126-1.472.4-1.472.728a7.265 7.265 0 00-3.475.217 8.74 8.74 0 00-4.386 4.004 9.161 9.161 0 00-1.17 4.082c.219.673.473 1.335.761 1.982.147.306.32 1.456.743 2.865a30.252 30.252 0 002.667 5.735c.476.707.895 1.45 1.255 2.22.256.578.562 1.134.914 1.662.113.146.208.305.282.473a4.72 4.72 0 01-1.03.258 4.141 4.141 0 01-.929.148 1.549 1.549 0 01-.63-.242 3.572 3.572 0 01-1.233-1.427 39.702 39.702 0 01-1.114-1.887 28.93 28.93 0 01-1.7-3.666A19.29 19.29 0 010 11.89c.003-.586.04-1.17.11-1.753C1.12 4.08 6.597-.277 12.853 0c6.256-.277 11.733 4.079 12.744 10.136.33 4.155-.62 8.312-2.724 11.933a21.253 21.253 0 01-1.898 3.158c-.041.055-.088.106-.134.158a1.717 1.717 0 01-.866.54z"/></g><path d="M13.052 3.22c-1.722 0-3.118-.546-3.118-1.222 0-.493.761-.926 1.857-1.115h.017a7.63 7.63 0 011.244-.106c.5-.002.997.047 1.486.148h.033c.906.198 1.532.57 1.592.999a.433.433 0 010 .062c0 .675-1.395 1.223-3.115 1.223l.004.01z" fill="#4E6C6A" fill-rule="nonzero"/></g></svg>