<svg width="21" height="21" xmlns="http://www.w3.org/2000/svg" xmlns:xlink="http://www.w3.org/1999/xlink"><defs><path id="a" d="M0 0h20.564v20.8H0z"/></defs><g fill="none" fill-rule="evenodd" opacity=".796"><path d="M0 0h20.564v20.8H0z"/><mask id="b" fill="#fff"><use xlink:href="#a"/></mask><g mask="url(#b)" fill="#4E6C6A" fill-rule="nonzero"><path d="M15.98 20.74a2.16 2.16 0 01-.891-.044l-.804-.158c-.17-.033.287-.776.35-.888.243-.445.493-.887.742-1.328.383-.673.771-1.345 1.163-2.015a18.211 18.211 0 001.755-3.931c.333-1.121.47-2.047.594-2.292.23-.517.433-1.045.608-1.582a7.314 7.314 0 00-.933-3.239 6.994 6.994 0 00-3.51-3.203 5.814 5.814 0 00-2.779-.173c-.08-.255-.475-.446-1.04-.549a4.284 4.284 0 00-1.76-.04c-.697.101-1.177.321-1.177.583a5.812 5.812 0 00-2.78.173 6.992 6.992 0 00-3.51 3.204 7.33 7.33 0 00-.935 3.265 16.2 16.2 0 00.609 1.586c.117.245.255 1.165.594 2.292a24.201 24.201 0 002.134 4.588c.38.566.716 1.16 1.004 1.776.205.463.45.907.73 1.33.092.116.167.243.227.378-.266.1-.543.169-.825.207a3.313 3.313 0 01-.743.118 1.239 1.239 0 01-.503-.194 2.858 2.858 0 01-.987-1.142 31.762 31.762 0 01-.891-1.51 23.143 23.143 0 01-1.36-2.932A15.432 15.432 0 010 9.512c.003-.469.032-.937.088-1.402C.896 3.264 5.278-.222 10.283 0c5.004-.222 9.386 3.263 10.195 8.108a16.405 16.405 0 01-2.18 9.547c-.431.884-.94 1.729-1.518 2.527-.033.043-.07.084-.107.126-.18.21-.422.361-.693.433z"/></g><path d="M10.442 2.576c-1.378 0-2.495-.437-2.495-.977 0-.395.61-.741 1.486-.893h.013c.329-.055.662-.083.996-.084.399-.002.797.037 1.188.118h.027c.725.158 1.226.455 1.273.799a.347.347 0 010 .05c0 .54-1.116.978-2.491.978l.003.009z" fill="#4E6C6A" fill-rule="nonzero"/></g></svg>