<svg width="28" height="22" xmlns="http://www.w3.org/2000/svg"><path d="M26 12.519c-.47 2.615-1.997 4.915-4.188 6.254a8.284 8.284 0 01-7.21.713c.47-2.616 1.997-4.916 4.188-6.255a8.285 8.285 0 017.21-.712zm-5.284-5.594a9.75 9.75 0 01.49 3.147c-.851.164-1.685.437-2.483.819a12.431 12.431 0 00-.501-3.033 8.465 8.465 0 012.494-.933zM13.523 4c2.031 1.848 3.22 4.567 3.21 7.418 0 .247-.01.495-.03.741a11.246 11.246 0 00-3.203 4.156 11.244 11.244 0 00-3.208-4.16 10.506 10.506 0 01-.026-.76C10.275 8.544 11.48 5.834 13.523 4zm-7.24 2.925a8.464 8.464 0 012.505.94c-.292.973-.465 1.99-.51 3.026a10.237 10.237 0 00-2.486-.82 9.748 9.748 0 01.49-3.146zM5.187 18.773C2.997 17.434 1.47 15.134 1 12.52a8.285 8.285 0 017.21.712c2.19 1.339 3.718 3.639 4.187 6.255a8.284 8.284 0 01-7.21-.713z" fill="#4E6C6A"/></svg>