<svg width="43" height="35" xmlns="http://www.w3.org/2000/svg" xmlns:xlink="http://www.w3.org/1999/xlink"><defs><path id="a" d="M0 .072h41.897v11.532H0z"/><path id="c" d="M.11.008h6.825v6.806H.11z"/></defs><g fill="none" fill-rule="evenodd"><g transform="translate(.5 .04)"><mask id="b" fill="#fff"><use xlink:href="#a"/></mask><path d="M41.67 9.463a49.15 49.15 0 00-.529.518l-1.413 1.407a.744.744 0 01-1.031.017c-4.997-4.623-10.9-7.084-17.78-7.083-6.87.001-12.76 2.464-17.737 7.054a.746.746 0 01-1.034-.02L.218 9.422a.745.745 0 01.01-1.063c.2-.191.405-.385.614-.574A29.955 29.955 0 0114.563.751a30.233 30.233 0 019.54-.515c2.452.25 4.84.805 7.15 1.658a30.215 30.215 0 0110.409 6.49c.31.292.314.783.008 1.08" fill="#E6E6E6" mask="url(#b)"/></g><g transform="translate(17.926 26.848)"><mask id="d" fill="#fff"><use xlink:href="#c"/></mask><path d="M3.127 6.814c-.445-.158-.923-.259-1.33-.485C.574 5.649-.08 4.21.159 2.855a3.423 3.423 0 012.796-2.8 3.404 3.404 0 013.94 2.847c.285 1.841-.994 3.577-2.85 3.869-.04.006-.08.028-.12.043h-.798z" fill="#E6E6E6" mask="url(#d)"/></g><path d="M8.47 17.256l-1.62-1.613a.973.973 0 01.014-1.393c7.293-6.963 20.23-8.13 29.083-.035a.973.973 0 01.029 1.407l-1.62 1.61a.971.971 0 01-1.328.04c-3.264-2.896-7.13-4.454-11.615-4.45-4.476.003-8.335 1.557-11.613 4.473a.971.971 0 01-1.33-.039" fill="#E6E6E6"/><path d="M29.734 21.916l-1.127 1.118a1.332 1.332 0 01-1.756.105c-1.555-1.21-3.36-1.856-5.411-1.86-2.051-.003-3.855.637-5.41 1.835A1.332 1.332 0 0114.271 23l-1.124-1.133a1.326 1.326 0 01.086-1.955c4.583-3.773 11.635-3.894 16.417.037.606.498.64 1.415.084 1.967" fill="#E6E6E6"/><g transform="translate(23.833 20.067)"><circle fill="#969CA3" cx="7.233" cy="7.233" r="7.233"/><circle fill="#D8D8D8" cx="7.233" cy="10.5" r="1.167"/><rect fill="#D8D8D8" x="6.067" y="2.333" width="2.333" height="5.6" rx="1.167"/></g></g></svg>