<svg width="27" height="27" xmlns="http://www.w3.org/2000/svg"><path d="M19.017 9.712c1.718 0 3.11-1.373 3.11-3.067l-.003-.033c0-.013.004-.024.004-.035 0-1.693-1.393-3.066-3.111-3.066-1.718 0-3.11 1.373-3.11 3.066l.002.04c0 .01-.003.02-.003.028 0 .24.04.471.095.694l-5.686 3.7a3.124 3.124 0 00-2.184-.884c-1.72 0-3.112 1.372-3.112 3.066 0 .012.004.023.004.035 0 .012-.004.022-.004.033 0 1.694 1.393 3.067 3.112 3.067.917 0 1.733-.4 2.302-1.02l5.48 3.97a.309.309 0 00-.006.049c0 .01.004.022.004.033-.001.012-.004.024-.004.035 0 1.693 1.393 3.066 3.11 3.066 1.72 0 3.112-1.373 3.112-3.066 0-.012-.004-.024-.004-.035 0-.01.004-.023.004-.033 0-1.694-1.393-3.068-3.111-3.068a3.108 3.108 0 00-2.631 1.448l-5.23-3.787a2.92 2.92 0 00.084-.658l-.002-.03.002-.038a2.9 2.9 0 00-.125-.797l5.648-3.676c.566.59 1.363.963 2.253.963z" fill="#F6F6F6"/></svg>