<svg width="13" height="14" xmlns="http://www.w3.org/2000/svg"><path d="M2.024 2.168a.62.62 0 00-.848 0 .554.554 0 000 .81l.848.808a.62.62 0 00.848 0 .554.554 0 000-.809l-.848-.81zm8 0l-.848.81a.554.554 0 000 .808.62.62 0 00.848 0l.848-.809a.554.554 0 000-.81.62.62 0 00-.848 0zM1.799 5H.6c-.33 0-.6.256-.6.572 0 .316.268.573.6.573h1.2c.33 0 .599-.257.599-.573a.587.587 0 00-.6-.572zm10 0h-1.2a.586.586 0 00-.599.572c0 .316.269.573.6.573h1.2c.33 0 .599-.257.599-.573a.587.587 0 00-.6-.572zM5.4.572v1.145c0 .316.269.572.6.572.331 0 .6-.256.6-.572V.572A.587.587 0 006 0c-.331 0-.6.256-.6.572zM3 6.6a3 3 0 106 0 3 3 0 00-6 0zm1.8 6.69c0 .316.27.573.6.573h1.2c.33 0 .6-.257.6-.573a.586.586 0 00-.6-.572H5.4c-.33 0-.6.256-.6.572zm-1.199-1.717c0 .316.269.573.6.573h3.598c.331 0 .6-.257.6-.573a.586.586 0 00-.6-.572H4.201c-.331 0-.6.256-.6.572z" fill="#F9AD6C"/></svg>