<svg width="34" height="33" xmlns="http://www.w3.org/2000/svg" xmlns:xlink="http://www.w3.org/1999/xlink"><defs><path id="a" d="M0 0h34v33H0z"/></defs><g fill="none" fill-rule="evenodd"><mask id="b" fill="#fff"><use xlink:href="#a"/></mask><g mask="url(#b)" fill-rule="nonzero"><path d="M0 0h34v33H0z"/><path d="M23.494 22.533H11.506a.462.462 0 00-.461.461v.922c0 .254.207.46.461.461h11.988c.254 0 .46-.207.461-.461v-.922a.462.462 0 00-.461-.461zm1.844-9.221c-.764 0-1.382.62-1.383 1.383 0 .197.044.392.127.571l-2.086 1.25a.921.921 0 01-1.274-.334l-2.349-4.11a1.383 1.383 0 10-1.746 0l-2.348 4.11a.922.922 0 01-1.274.334l-2.084-1.251a1.383 1.383 0 10-1.259.813c.074-.002.149-.01.222-.023l2.083 5.556h11.066l2.083-5.556c.073.014.148.021.222.023a1.383 1.383 0 000-2.766z" fill="#4E6C6A"/></g></g></svg>