<svg width="20" height="20" xmlns="http://www.w3.org/2000/svg" xmlns:xlink="http://www.w3.org/1999/xlink"><defs><path id="a" d="M0 .45h13.35V13.8H0z"/></defs><g fill="none" fill-rule="evenodd"><g transform="translate(3 3.682)"><mask id="b" fill="#fff"><use xlink:href="#a"/></mask><path d="M13.35 7.125a6.675 6.675 0 11-13.35 0 6.675 6.675 0 0113.35 0" fill="#4E6C6A" mask="url(#b)"/></g><path d="M10.334 10.807a.659.659 0 11-1.318 0 .659.659 0 011.318 0" fill="#FFF"/><path fill="#FFF" d="M9.016 10.764l.659-3.02.658 3.02zm.658-4.653a.167.167 0 01-.166-.166V5.26a.167.167 0 01.333 0v.684a.167.167 0 01-.167.166m-3.4 1.253a.142.142 0 01-.2 0l-.411-.41a.143.143 0 010-.201.143.143 0 01.2 0l.411.412a.141.141 0 010 .2m-1.408 3.4a.142.142 0 01-.141.142h-.581a.142.142 0 010-.283h.58c.079 0 .142.063.142.141m9.618-.001c0-.077.064-.142.141-.142h.582a.142.142 0 010 .284h-.582a.142.142 0 01-.14-.142m-1.41-3.401a.141.141 0 010-.2l.412-.41a.141.141 0 11.2.2l-.411.41a.142.142 0 01-.2 0"/><path d="M11.56 2.975H7.79a.49.49 0 01-.488-.487A.49.49 0 017.79 2h3.77a.49.49 0 01.487.488.49.49 0 01-.487.487M4.17 5.157l-.537-.537a.525.525 0 01.742-.74l.536.535a.525.525 0 01-.74.742m11.009 0l.536-.537a.525.525 0 00-.742-.74l-.536.535a.525.525 0 00.741.742" fill="#4E6C6A"/><path d="M9.674 3.509c.299 0 .582.064.838.177V2.487H8.837v1.199c.257-.113.54-.177.837-.177" fill="#4E6C6A"/></g></svg>