<svg width="26" height="28" xmlns="http://www.w3.org/2000/svg" xmlns:xlink="http://www.w3.org/1999/xlink"><defs><path id="a" d="M0 0h22v22H0z"/></defs><g transform="translate(2 3)" fill="none" fill-rule="evenodd"><mask id="b" fill="#fff"><use xlink:href="#a"/></mask><path d="M11 15.979a4.978 4.978 0 110-9.957 4.978 4.978 0 010 9.957m9.519-7.021a2.254 2.254 0 01-1.254-3.103c.927-1.908-1.054-3.924-2.978-3.03a2.254 2.254 0 01-3.08-1.308c-.694-2.004-3.52-2.029-4.249-.036a2.255 2.255 0 01-3.103 1.254c-1.908-.927-3.924 1.054-3.03 2.978a2.254 2.254 0 01-1.308 3.08c-2.004.694-2.029 3.52-.036 4.249a2.255 2.255 0 011.254 3.103c-.927 1.908 1.054 3.924 2.978 3.03a2.254 2.254 0 013.08 1.308c.694 2.004 3.52 2.029 4.249.036a2.255 2.255 0 013.103-1.254c1.908.927 3.924-1.054 3.03-2.978a2.254 2.254 0 011.308-3.08c2.004-.694 2.029-3.52.036-4.25" fill="#FFF" mask="url(#b)"/></g></svg>