<svg width="24" height="24" xmlns="http://www.w3.org/2000/svg"><path d="M19.899 8.99a.695.695 0 00-.116-.863c-.257-.212-.597-.15-.805.123-.025.027-3.2 4.056-6.974 4.056-3.657 0-6.974-4.056-7.007-4.091a.558.558 0 00-.805-.062c-.232.212-.257.617-.058.864.058.088.747.926 1.833 1.843l-1.451 1.63a.629.629 0 00.025.864c.058.123.199.185.34.185a.547.547 0 00.398-.185L6.854 11.6a10.812 10.812 0 002.604 1.446l-.597 2.187c-.083.335.083.679.398.767h.174c.257 0 .49-.185.54-.458l.596-2.187c.456.088.946.15 1.427.15.48 0 .97-.062 1.426-.15l.597 2.151a.587.587 0 00.54.459c.057 0 .115 0 .14-.027.315-.088.49-.432.398-.767L14.5 13.02c.97-.37 1.858-.89 2.604-1.446l1.543 1.72a.547.547 0 00.398.184.547.547 0 00.398-.185.65.65 0 00.025-.864l-1.46-1.63c1.202-.918 1.89-1.808 1.89-1.808z" fill="#4E6C6A" fill-rule="evenodd"/></svg>